# xmcd
#
# Track frame offsets: 
#        150
#        65688
#        131226
#
# Disc length: 1876 seconds
#
# Revision: 0
# Processed by: cddbd v1.5.2PL0 Copyright (c) Steve Scherf et al.
# Submitted via: ExactAudioCopy v1.3
#
DISCID=2b075203
DTITLE=志人 × DJ DOLBEE - 杣道 Ep
DYEAR=2016
DGENRE=
TTITLE0=杣道 ~Lumberjack Blues~
TTITLE1=杣道 ~Lumberjack Blues~ Instrumental
TTITLE2=びやんぴんぽん
EXTD=
EXTT0=
EXTT1=
EXTT2=
PLAYORDER=
